<svg xmlns="http://www.w3.org/2000/svg" xmlns:xlink="http://www.w3.org/1999/xlink" id="ejAQT9c7wWI1" viewBox="0 0 71 68" shape-rendering="geometricPrecision" text-rendering="geometricPrecision">

    <path id="ejAQT9c7wWI2" d="M19.535300,11.825800C20.239700,10.769600,21.033400,9.730690,21.892100,8.791320C23.481500,7.052760,25.143500,5.819090,26.722000,5.297140C28.171300,4.817930,29.641700,4.894660,31.255300,5.983570C32.660500,6.931800,34.269700,8.718500,35.932900,11.825800L19.535300,11.825800ZM13.689600,11.825800C14.822800,9.716640,16.356600,7.410530,18.189000,5.406070C20.076300,3.341580,22.431500,1.431380,25.146900,0.533517C27.991600,-0.407076,31.091900,-0.179567,34.061900,1.824680C36.827500,3.691030,39.309200,6.979110,41.526400,11.825800L49.028100,11.825800L55.190100,56.981300L0,56.981300L6.028040,11.825800L13.689600,11.825800Z" clip-rule="evenodd" fill="rgb(61,114,163)" fill-rule="evenodd" stroke="none" stroke-width="1"/>
    <path id="ejAQT9c7wWI3" d="M44.995200,26.878000C45.512500,25.878100,46.094600,24.898000,46.721800,24.017500C47.888600,22.379600,49.018000,21.360200,49.945000,20.966900C50.362100,20.789900,50.688300,20.759900,50.968300,20.805400C51.250600,20.851300,51.666600,21.003500,52.213000,21.476800C53.160800,22.297600,54.323200,23.931500,55.547700,26.878000L44.995200,26.878000ZM39.452400,26.878000C40.262900,24.981500,41.344000,22.919300,42.635300,21.106500C43.997100,19.194900,45.789200,17.280000,47.985100,16.348200C49.129500,15.862600,50.415000,15.632300,51.773100,15.853100C53.128800,16.073400,54.377300,16.713800,55.497600,17.684100C57.569000,19.477900,59.351700,22.524500,60.926800,26.878000L66.317000,26.878000L70.958500,67.016300L29.386800,67.016300L33.927400,26.878000L39.452400,26.878000ZM35.003600,61.999000L38.409100,31.895300L61.846500,31.895300L65.327600,61.999000L35.003600,61.999000Z" clip-rule="evenodd" fill="rgb(0,0,0)" fill-rule="evenodd" stroke="none" stroke-width="1"/>

</svg>